# xmcd
#
# Track frame offsets:
#	150
#	15798
#	43628
#	55899
#	69786
#	86342
#	100520
#	115149
#	137034
#	156794
#	181853
#
# Disc length: 2625 seconds
#
# Revision: 1
# Processed by: cddbd v1.5.2PL0 Copyright (c) Steve Scherf et al.
# Submitted via: audiograbber 1.83.01
#
DISCID=760a3f0b
DTITLE=ARTUR DYRO - EXECUTIVE SUMMARY
DYEAR=2009
DGENRE=
TTITLE0=ARTUR DYRO - MISTIQUE
TTITLE1=ARTUR DYRO - SUMMER ENDS
TTITLE2=ARTUR DYRO - THE WALK
TTITLE3=ARTUR DYRO - CHATEAU
TTITLE4=ARTUR DYRO - WIFE'S BLUES
TTITLE5=ARTUR DYRO - SEPTEMBER BLUES
TTITLE6=ARTUR DYRO - GET IT RIGHT
TTITLE7=ARTUR DYRO - PERFECT EVENING
TTITLE8=ARTUR DYRO - AMSTERDAM
TTITLE9=ARTUR DYRO - POLISH BLUES
TTITLE10=ARTUR DYRO - NO TITLE
EXTD=
EXTT0=
EXTT1=
EXTT2=
EXTT3=
EXTT4=
EXTT5=
EXTT6=
EXTT7=
EXTT8=
EXTT9=
EXTT10=
PLAYORDER=
